Simulation
nRows=49
nColumns=15
endheader
time  TH_x TH_y TH_z SC_y  SC_z  SC_x  AC_y  AC_z  AC_x  GH_y  GH_z  GH_yy  EL_x  PS_y
0.0  0.000000  0.000000  0.000000  -26.378877271915318  -1.1600163144548266  3.7499213214453366  52.20000054104125  4.92283914908726  -4.754409094780738  19.589351744239167  13.819032463210336  23.49897053174067  27.08995619483696  0.000000
0.039  0.000000  0.000000  0.000000  -26.242493704980095  -0.8252961985032176  3.7188574367926734  51.395183341971645  5.17681181856787  -5.036803279233135  19.548347756404922  13.781064010678868  23.66501425542024  26.756341466532607  0.000000
0.078  0.000000  0.000000  0.000000  -26.062667937086395  -0.7139565061649644  3.973741557815921  50.952734809833004  4.960366706138032  -5.482097344253898  19.55963592068523  13.481643858943505  23.792715022395768  26.218072560915118  0.000000
0.11699999999999999  0.000000  0.000000  0.000000  -25.978882513275718  -0.7330966453472428  4.495181336512009  50.81366387629917  4.583130320044005  -5.951406973373978  19.731209364807505  13.08207634512683  23.766806707514274  25.854599756202585  0.000000
0.156  0.000000  0.000000  0.000000  -25.85857977422658  -0.812009500440315  5.062014719699146  50.854028329869934  4.159685228817511  -6.288811516458516  20.082233120357852  12.78359811678009  23.2570753149754  25.533511069982335  0.000000
0.195  0.000000  0.000000  0.000000  -25.789079117525674  -0.9153190897219294  5.5163711944100475  51.148335532582806  3.8412459241999106  -6.455224251338013  20.802868926306584  12.785380348629783  22.12448153715385  25.27595699272504  0.000000
0.23399999999999999  0.000000  0.000000  0.000000  -25.750387024466793  -1.00200497426187  5.80450821787941  51.49753597390353  3.6557982247367065  -6.4009398760198835  22.02095560240188  13.146404004085344  20.23784152469345  25.086583955338742  0.000000
0.273  0.000000  0.000000  0.000000  -25.802124495862103  -1.081524270331152  5.910458364496307  51.983978591457976  3.6155458504341014  -6.161248744291806  23.832662352609763  13.939334849250926  17.506272448055824  24.952052052212633  0.000000
0.312  0.000000  0.000000  0.000000  -25.948418915650656  -1.1556379275576598  5.856558828524398  52.51628917583556  3.715046693683146  -5.743675222363821  26.24045742723882  15.134975229855069  13.962486861635506  24.872685330333592  0.000000
0.351  0.000000  0.000000  0.000000  -26.153788253735602  -1.218393011513051  5.681349565947607  53.1088225735439  3.9348241003005233  -5.213579801065385  29.084757442334258  16.6845253161075  9.733268594853481  24.810873122630404  0.000000
0.39  0.000000  0.000000  0.000000  -26.341720781567357  -1.2546529844473653  5.456594416101757  53.69896791371843  4.263860192729102  -4.653439098658939  32.10820598781402  18.48791818686063  5.112269384557916  24.79245460517759  0.000000
0.429  0.000000  0.000000  0.000000  -26.48339553944067  -1.2499389247776094  5.235586613906682  54.26632133528256  4.725849205818631  -4.1196617582578625  35.043395288578886  20.447348546251064  0.4525440118838228  24.827188238090308  0.000000
0.46799999999999997  0.000000  0.000000  0.000000  -26.551137459994834  -1.2118720856673553  5.080824896415642  54.826954188887555  5.282240615715369  -3.665050190980876  37.673190504102955  22.52302338181672  -3.972726655371713  24.926398096914443  0.000000
0.507  0.000000  0.000000  0.000000  -26.574658336851016  -1.143648826624891  5.008189420412854  55.387689927368044  5.9070683434954026  -3.259921107028374  39.912463073770006  24.67760152490288  -8.02221503630783  25.048894555266635  0.000000
0.546  0.000000  0.000000  0.000000  -26.52863828473992  -1.0550638619280233  5.030940097770784  55.97923495700789  6.544613161834786  -2.9293568784701973  41.76268295430865  26.914403340604313  -11.704439575812055  25.172552193412532  0.000000
0.585  0.000000  0.000000  0.000000  -26.44561639378593  -0.9721697579900069  5.154581335529123  56.57342138490762  7.209735482038276  -2.6700083036760582  43.345277027449065  29.147541387499974  -15.090262809684859  25.280236127215986  0.000000
0.624  0.000000  0.000000  0.000000  -26.35150108826688  -0.8984850829385012  5.387992790961491  57.15943452502892  7.863850517590022  -2.540346600407621  44.83059834517334  31.313560397299813  -18.33157810831598  25.351662312402677  0.000000
0.663  0.000000  0.000000  0.000000  -26.2781461535173  -0.9021119999542212  5.7780818743437665  57.64762599083534  8.506706131143861  -2.628278405446977  46.463906441816  33.26035290297357  -21.53449604442111  25.400219851669018  0.000000
0.702  0.000000  0.000000  0.000000  -26.180064867780168  -1.0551318398054048  6.252950798555784  57.88436623307144  9.028789546874991  -3.08362606821097  48.34688476898823  35.20964792670108  -24.814884235540372  25.31947177065903  0.000000
0.741  0.000000  0.000000  0.000000  -25.88854667538688  -1.450215995760294  6.813794004573882  57.56815002845053  9.57412341133747  -4.174929647367864  50.457603772013464  37.70020722928466  -28.247596150980886  25.107217811297318  0.000000
0.78  0.000000  0.000000  0.000000  -25.74202275944815  -1.9086004515878543  7.575342064124892  56.54706729802086  10.215248035970626  -5.968841069897962  52.978666177772894  41.828777845892255  -31.97348829055287  24.94929015119921  0.000000
0.819  0.000000  0.000000  0.000000  -25.330614296683702  -2.052204800118754  9.683735461850803  55.14785420690294  10.517765632489388  -8.675623248791315  55.53365023422585  47.51543141756477  -35.996998203523184  24.811092194444022  0.000000
0.858  0.000000  0.000000  0.000000  -24.215741536883517  -0.5474290415397483  14.391904146302483  53.75237859088047  8.672684244850148  -11.628387202220944  57.532302457889536  52.483854727096464  -39.815564446156934  24.757501741452092  0.000000
0.897  0.000000  0.000000  0.000000  -24.24371783385182  3.3713191407263796  19.56341981142113  52.793325270992355  3.9950907619131897  -11.98295877773358  59.24520244152899  54.82878278276044  -42.44455246137223  24.901149105208574  0.000000
0.9359999999999999  0.000000  0.000000  0.000000  -25.432569691107176  7.416828229560952  23.112644714373832  53.23942815470612  -0.660233949087686  -9.636632966608095  59.97561733284592  54.21164018240348  -43.73648932447183  24.945906085813235  0.000000
0.975  0.000000  0.000000  0.000000  -26.047424344275907  9.082009419950108  27.35156706153342  55.17364821648045  -3.876968193013225  -8.49668203646351  58.943833273889  51.970120901162936  -44.4786837318076  24.73647797067079  0.000000
1.014  0.000000  0.000000  0.000000  -26.421642471405868  7.773069331971382  32.02180509905143  57.83983508223678  -5.243932442791306  -9.547474789004825  56.82103000486867  50.43068034686355  -44.906231404537586  24.594558051402167  0.000000
1.053  0.000000  0.000000  0.000000  -26.685446059355687  5.5492215602695065  35.916460843509775  60.07269093622384  -6.15867249548257  -11.497041751880964  54.4691328810797  50.96995730304039  -45.063097352778684  24.42918943400324  0.000000
1.092  0.000000  0.000000  0.000000  -26.81270177909094  4.736670982778861  38.512707619491955  60.910860678333385  -7.446621939380923  -12.68458373366553  52.77484713870786  52.82867165305653  -44.946367156723596  24.254207937929497  0.000000
1.131  0.000000  0.000000  0.000000  -27.17287089912031  4.95125609714093  39.32141448051745  61.11889296001189  -7.9152071414013365  -12.528189217358205  51.93997654544797  54.72813110533343  -44.7868435929547  24.322650987422364  0.000000
1.17  0.000000  0.000000  0.000000  -27.56561768941828  5.311480774476311  39.38863310018445  61.309889804021424  -7.5763880021782395  -11.93939321946851  51.63109248749094  56.240319507499784  -44.87789547442192  24.405183080911062  0.000000
1.209  0.000000  0.000000  0.000000  -27.90204068848316  5.686073216421636  38.97506339215073  61.44202008205935  -6.60673104841794  -11.163423485719825  51.50833761861766  57.458291023557145  -45.214406131306106  24.415052278115184  0.000000
1.248  0.000000  0.000000  0.000000  -28.28178381428302  6.0796011659944  38.359623622851025  61.513583243242486  -5.334937434895469  -10.327294787381543  51.46010173678625  58.48676884594212  -45.71048143412865  24.375721050905703  0.000000
1.287  0.000000  0.000000  0.000000  -28.665099115338062  6.492071465176874  37.76264323787094  61.50748289128545  -3.992780944859871  -9.491282350886074  51.42966356168098  59.328604530913736  -46.24040769396873  24.278544562026717  0.000000
1.326  0.000000  0.000000  0.000000  -29.010642823673358  6.915745724789263  37.31536828683879  61.48076009999895  -2.715745248955609  -8.697016229735729  51.36970971554505  60.00688902665127  -46.71035747639036  24.10219438577247  0.000000
1.365  0.000000  0.000000  0.000000  -29.29211029652133  7.363541872503083  37.05408445498675  61.42410720609912  -1.5768544302668066  -7.9255350865878995  51.25079770955644  60.54953121170565  -47.01215090030205  23.850187641124624  0.000000
1.404  0.000000  0.000000  0.000000  -29.50961530586639  7.812173832683306  36.93479825249576  61.37683082258514  -0.5844719324140695  -7.185355951627356  51.04701231860503  61.014823289974906  -47.13966801232783  23.53280653779307  0.000000
1.443  0.000000  0.000000  0.000000  -29.6919829529473  8.225330466547733  36.91591015419349  61.32040161245773  0.2617109335304943  -6.493365494367892  50.80664197732256  61.41510626713188  -47.142361320225156  23.206862850659746  0.000000
1.482  0.000000  0.000000  0.000000  -29.870884038841922  8.57335778522984  36.931688439203185  61.27204766494753  0.9732483103638048  -5.891446175469623  50.56697769839716  61.78626169826014  -47.112476958389166  22.914646954626946  0.000000
1.521  0.000000  0.000000  0.000000  -30.05818957655983  8.829493416108548  36.975172673154006  61.21416704535123  1.5630580272695063  -5.407575687097269  50.38908415265727  62.10468117796025  -47.11324615451279  22.690490502512738  0.000000
1.56  0.000000  0.000000  0.000000  -30.241696849224297  9.000113614973808  37.02928024369582  61.17113450177992  2.037499954424386  -5.050042869103015  50.27481844175018  62.37588835973573  -47.16260479959159  22.51011537848417  0.000000
1.599  0.000000  0.000000  0.000000  -30.402897941335322  9.10715305714661  37.10010774964428  61.13964763982292  2.383645326574925  -4.790655087533868  50.22915295894327  62.58321407216475  -47.23106509521743  22.343797658573852  0.000000
1.638  0.000000  0.000000  0.000000  -30.526078921423625  9.168107233007486  37.17475186734111  61.14673369096812  2.601971890214655  -4.613264170304385  50.22967135495852  62.72481648103392  -47.29120667412899  22.16602119400657  0.000000
1.677  0.000000  0.000000  0.000000  -30.609291931324947  9.194355051710431  37.25516808954588  61.1833828563006  2.6801165707308257  -4.506478190923903  50.2778501692483  62.78061291363261  -47.30723054952769  21.98498573835213  0.000000
1.716  0.000000  0.000000  0.000000  -30.664264677805907  9.192330729619846  37.32905425991042  61.25585493583019  2.6167363717682504  -4.476501747398466  50.35674679467972  62.72873302396084  -47.25751713734514  21.839562712992997  0.000000
1.755  0.000000  0.000000  0.000000  -30.701601291091105  9.16551890255724  37.40806283134357  61.342547679672265  2.3898223569368318  -4.536130596227261  50.46091363246507  62.544256481646755  -47.10401493548651  21.76251405405184  0.000000
1.794  0.000000  0.000000  0.000000  -30.718177079375106  9.109851700035394  37.50164932840741  61.440098091962774  1.9933175163477461  -4.702884085037108  50.55561231859979  62.20798368989081  -46.819123835359456  21.77361608755347  0.000000
1.833  0.000000  0.000000  0.000000  -30.704854162446786  9.00565048629775  37.63011343471303  61.53046336149597  1.4043750030071076  -5.007977467015069  50.615944454279706  61.74136623976047  -46.350049779491435  21.859286868882332  0.000000
1.8719999999999999  0.000000  0.000000  0.000000  -30.638728766058357  8.826785404371075  37.821485536737036  61.607905435258566  0.6260078203907317  -5.4808575961825365  50.61193419784312  61.15493642401246  -45.672117447218255  22.002433381181913  0.000000
